<svg xmlns="http://www.w3.org/2000/svg" xmlns:xlink="http://www.w3.org/1999/xlink" width="1140" height="841.56"><rect width="1140" height="841.56" rx="5" ry="5" class="a"/><svg y="0%" x="0%"><circle cx="20" cy="20" r="6" fill="#ff5f58"/><circle cx="40" cy="20" r="6" fill="#ffbd2e"/><circle cx="60" cy="20" r="6" fill="#18c132"/></svg><svg height="781.56" viewBox="0 0 110 78.156" width="1100" x="15" xmlns="http://www.w3.org/2000/svg" xmlns:xlink="http://www.w3.org/1999/xlink" y="50"><style>@keyframes k{0%{transform:translateX(-110px)}9.6%{transform:translateX(-220px)}38.5%{transform:translateX(-330px)}48.1%{transform:translateX(-440px)}86.5%{transform:translateX(-550px)}to{transform:translateX(-660px)}}.a{fill:#282d35}.f{fill:#a8cc8c;white-space:pre}.f,.g{font-weight:700}.g,.h{fill:#b9c0cb;white-space:pre}</style><g font-family="Monaco,Consolas,Menlo,'Bitstream Vera Sans Mono','Powerline Symbols',monospace" font-size="1.67"><defs><symbol id="1"><text y="1.67" class="f">$</text><text x="2.004" y="1.67" class="g">draft</text><text x="8.016" y="1.67" class="g">--version</text></symbol><symbol id="2"><text y="1.67" class="h">draft-cli</text><text x="10.02" y="1.67" class="h">0.8.0</text></symbol><symbol id="3"><text y="1.67" class="f">$</text><text x="2.004" y="1.67" class="g">draft</text><text x="8.016" y="1.67" class="g">--list-placeholders</text><text x="28.056" y="1.67" class="g">examples/cp-mutual-nda-coverpage.md</text></symbol><symbol id="4"><text y="1.67" class="h">purpose</text><text x="9.018" y="1.67" class="h">(Evaluating</text><text x="21.042" y="1.67" class="h">whether</text><text x="29.058" y="1.67" class="h">to</text><text x="32.064" y="1.67" class="h">enter</text><text x="38.076" y="1.67" class="h">into</text><text x="43.086" y="1.67" class="h">a</text><text x="45.09" y="1.67" class="h">business</text><text x="54.108" y="1.67" class="h">relationship</text><text x="67.134" y="1.67" class="h">with</text><text x="72.144" y="1.67" class="h">the</text><text x="76.152" y="1.67" class="h">other</text><text x="82.164" y="1.67" class="h">party.)</text><text x="91.182" y="1.67" class="h">×1</text><text x="95.19" y="1.67" class="h">[tier=bracket]</text></symbol><symbol id="5"><text y="1.67" class="h">effective_date</text><text x="16.032" y="1.67" class="h">(Today’s</text><text x="25.05" y="1.67" class="h">date)</text><text x="32.064" y="1.67" class="h">×1</text><text x="36.072" y="1.67" class="h">[tier=bracket]</text></symbol><symbol id="6"><text y="1.67" class="h">term</text><text x="6.012" y="1.67" class="h">(1</text><text x="9.018" y="1.67" class="h">year(s))</text><text x="19.038" y="1.67" class="h">×2</text><text x="23.046" y="1.67" class="h">[tier=bracket]</text></symbol><symbol id="7"><text y="1.67" class="h">governing_state</text><text x="17.034" y="1.67" class="h">(Fill</text><text x="23.046" y="1.67" class="h">in</text><text x="26.052" y="1.67" class="h">state)</text><text x="34.068" y="1.67" class="h">×1</text><text x="38.076" y="1.67" class="h">[tier=bracket]</text></symbol><symbol id="8"><text y="1.67" class="h">jurisdiction</text><text x="14.028" y="1.67" class="h">(Fill</text><text x="20.04" y="1.67" class="h">in</text><text x="23.046" y="1.67" class="h">city</text><text x="28.056" y="1.67" class="h">or</text><text x="31.062" y="1.67" class="h">county</text><text x="38.076" y="1.67" class="h">and</text><text x="42.084" y="1.67" class="h">state,</text><text x="49.098" y="1.67" class="h">i.e.</text><text x="54.108" y="1.67" class="h">“courts</text><text x="62.124" y="1.67" class="h">located</text><text x="70.14" y="1.67" class="h">in</text><text x="73.146" y="1.67" class="h">New</text><text x="77.154" y="1.67" class="h">Castle,</text><text x="85.17" y="1.67" class="h">DE”)</text><text x="91.182" y="1.67" class="h">×1</text><text x="95.19" y="1.67" class="h">[tier=bracket]</text></symbol><symbol id="9"><text y="1.67" class="f">$</text><text x="2.004" y="1.67" class="g">draft</text><text x="8.016" y="1.67" class="g">examples/cp-mutual-nda-coverpage.md</text><text x="44.088" y="1.67" class="g">\</text></symbol><symbol id="10"><text x="2.004" y="1.67" class="g">--purpose</text><text x="12.024" y="1.67" class="g">&quot;Evaluating</text><text x="24.048" y="1.67" class="g">a</text><text x="26.052" y="1.67" class="g">potential</text><text x="36.072" y="1.67" class="g">business</text><text x="45.09" y="1.67" class="g">partnership&quot;</text><text x="58.116" y="1.67" class="g">\</text></symbol><symbol id="11"><text x="2.004" y="1.67" class="g">--effective-date</text><text x="19.038" y="1.67" class="g">&quot;June</text><text x="25.05" y="1.67" class="g">1,</text><text x="28.056" y="1.67" class="g">2026&quot;</text><text x="34.068" y="1.67" class="g">\</text></symbol><symbol id="12"><text x="2.004" y="1.67" class="g">--term</text><text x="9.018" y="1.67" class="g">&quot;2</text><text x="12.024" y="1.67" class="g">year(s)&quot;</text><text x="21.042" y="1.67" class="g">\</text></symbol><symbol id="13"><text x="2.004" y="1.67" class="g">--governing-state</text><text x="20.04" y="1.67" class="g">&quot;Delaware&quot;</text><text x="31.062" y="1.67" class="g">\</text></symbol><symbol id="14"><text x="2.004" y="1.67" class="g">--jurisdiction</text><text x="17.034" y="1.67" class="g">&quot;courts</text><text x="25.05" y="1.67" class="g">located</text><text x="33.066" y="1.67" class="g">in</text><text x="36.072" y="1.67" class="g">New</text><text x="40.08" y="1.67" class="g">Castle,</text><text x="48.096" y="1.67" class="g">DE&quot;</text><text x="52.104" y="1.67" class="g">\</text></symbol><symbol id="15"><text x="2.004" y="1.67" class="g">--diff</text></symbol><symbol id="a"><path fill="transparent" d="M0 0h110v37H0z"/></symbol><symbol id="b"><path fill="#6f7683" d="M0 0h1.102v2.171H0z"/></symbol></defs><path class="a" d="M0 0h110v78.156H0z"/><g style="animation-duration:5.2s;animation-iteration-count:infinite;animation-name:k;animation-timing-function:steps(1,end)"><svg width="770"><svg><use xlink:href="#a"/><use xlink:href="#b" x="-.004"/></svg><svg x="110"><use xlink:href="#a"/><use xlink:href="#b" x="-.004" y="2.146"/><use xlink:href="#1"/></svg><svg x="220"><use xlink:href="#a"/><use xlink:href="#b" x="-.004" y="4.317"/><use xlink:href="#1"/><use xlink:href="#2" y="2.171"/></svg><svg x="330"><use xlink:href="#a"/><use xlink:href="#b" x="-.004" y="6.488"/><use xlink:href="#1"/><use xlink:href="#2" y="2.171"/><use xlink:href="#3" y="4.342"/></svg><svg x="440"><use xlink:href="#a"/><use xlink:href="#b" x="-.004" y="17.343"/><use xlink:href="#1"/><use xlink:href="#2" y="2.171"/><use xlink:href="#3" y="4.342"/><use xlink:href="#4" y="6.513"/><use xlink:href="#5" y="8.684"/><use xlink:href="#6" y="10.855"/><use xlink:href="#7" y="13.026"/><use xlink:href="#8" y="15.197"/></svg><svg x="550"><use xlink:href="#a"/><use xlink:href="#b" x="-.004" y="32.54"/><use xlink:href="#1"/><use xlink:href="#2" y="2.171"/><use xlink:href="#3" y="4.342"/><use xlink:href="#4" y="6.513"/><use xlink:href="#5" y="8.684"/><use xlink:href="#6" y="10.855"/><use xlink:href="#7" y="13.026"/><use xlink:href="#8" y="15.197"/><use xlink:href="#9" y="17.368"/><use xlink:href="#10" y="19.539"/><use xlink:href="#11" y="21.71"/><use xlink:href="#12" y="23.881"/><use xlink:href="#13" y="26.052"/><use xlink:href="#14" y="28.223"/><use xlink:href="#15" y="30.394"/></svg><svg x="660"><use xlink:href="#a"/><use xlink:href="#b" x="-.004" y="54.25"/><use xlink:href="#1"/><use xlink:href="#2" y="2.171"/><use xlink:href="#3" y="4.342"/><use xlink:href="#4" y="6.513"/><use xlink:href="#5" y="8.684"/><use xlink:href="#6" y="10.855"/><use xlink:href="#7" y="13.026"/><use xlink:href="#8" y="15.197"/><use xlink:href="#9" y="17.368"/><use xlink:href="#10" y="19.539"/><use xlink:href="#11" y="21.71"/><use xlink:href="#12" y="23.881"/><use xlink:href="#13" y="26.052"/><use xlink:href="#14" y="28.223"/><use xlink:href="#15" y="30.394"/><text y="34.235" class="h">changes</text><text x="8.016" y="34.235" class="h">that</text><text x="13.026" y="34.235" class="h">would</text><text x="19.038" y="34.235" class="h">be</text><text x="22.044" y="34.235" class="h">made:</text><text x="2.004" y="36.406" class="h">[Evaluating</text><text x="14.028" y="36.406" class="h">whether</text><text x="22.044" y="36.406" class="h">to</text><text x="25.05" y="36.406" class="h">enter</text><text x="31.062" y="36.406" class="h">into</text><text x="36.072" y="36.406" class="h">a</text><text x="38.076" y="36.406" class="h">business</text><text x="47.094" y="36.406" class="h">relationship</text><text x="60.12" y="36.406" class="h">with</text><text x="65.13" y="36.406" class="h">the</text><text x="69.138" y="36.406" class="h">other</text><text x="75.15" y="36.406" class="h">party.]</text><text x="84.168" y="36.406" class="h">→</text><text x="87.174" y="36.406" class="h">Evaluating</text><text x="98.196" y="36.406" class="h">a</text><text x="100.2" y="36.406" class="h">potential</text><text y="38.577" class="h">business</text><text x="9.018" y="38.577" class="h">partnership</text><text x="2.004" y="40.748" class="h">[Today’s</text><text x="11.022" y="40.748" class="h">date]</text><text x="84.168" y="40.748" class="h">→</text><text x="87.174" y="40.748" class="h">June</text><text x="92.184" y="40.748" class="h">1,</text><text x="95.19" y="40.748" class="h">2026</text><text x="2.004" y="42.919" class="h">[1</text><text x="5.01" y="42.919" class="h">year(s)]</text><text x="84.168" y="42.919" class="h">→</text><text x="87.174" y="42.919" class="h">2</text><text x="89.178" y="42.919" class="h">year(s)</text><text x="99.198" y="42.919" class="h">×2</text><text x="2.004" y="45.09" class="h">[Fill</text><text x="8.016" y="45.09" class="h">in</text><text x="11.022" y="45.09" class="h">state]</text><text x="84.168" y="45.09" class="h">→</text><text x="87.174" y="45.09" class="h">Delaware</text><text x="2.004" y="47.261" class="h">[Fill</text><text x="8.016" y="47.261" class="h">in</text><text x="11.022" y="47.261" class="h">city</text><text x="16.032" y="47.261" class="h">or</text><text x="19.038" y="47.261" class="h">county</text><text x="26.052" y="47.261" class="h">and</text><text x="30.06" y="47.261" class="h">state,</text><text x="37.074" y="47.261" class="h">i.e.</text><text x="42.084" y="47.261" class="h">“courts</text><text x="50.1" y="47.261" class="h">located</text><text x="58.116" y="47.261" class="h">in</text><text x="61.122" y="47.261" class="h">New</text><text x="65.13" y="47.261" class="h">Castle,</text><text x="73.146" y="47.261" class="h">DE”]</text><text x="84.168" y="47.261" class="h">→</text><text x="87.174" y="47.261" class="h">courts</text><text x="94.188" y="47.261" class="h">located</text><text x="102.204" y="47.261" class="h">in</text><text x="105.21" y="47.261" class="h">New</text><text x="109.218" y="47.261" class="h">C</text><text y="49.432" class="h">astle,</text><text x="7.014" y="49.432" class="h">DE</text><text y="53.774" class="h">5</text><text x="2.004" y="53.774" class="h">placeholder(s),</text><text x="18.036" y="53.774" class="h">6</text><text x="20.04" y="53.774" class="h">substitution(s),</text><text x="37.074" y="53.774" class="h">0</text><text x="39.078" y="53.774" class="h">unresolved.</text></svg></svg></g></g></svg></svg>